<svg
  version="1.1"
  xmlns="http://www.w3.org/2000/svg">
  <defs>
    <symbol id="hexagon" viewBox="0 0 300 260">
      <path d="m262.5 65-37.5-65h-150l-75 130 37.5 64.9 37.5 65h150l37.5-65 37.5-64.9zm12.8 42.6-8-0.9-7.4-16.2 15.3 9.1zm-22 82-7-1.5-3.1 4.4 0.1-5.4-6.5-2.9 5.3-1.1-1.7-5.2 5.8 4.2 4.6-2.8-2.3 4.9zm-103.3 20.7-6.2-2.8-0.6-5.8 6.8-3.9 6.8 3.9-0.6 5.8zm5.7 1.9-1.4 13.2-4.3 4.8-4.3-4.8-1.4-13.2 5.7 2.5zm-98.9-19.7-3.1-4.4-7 1.5 4.8-5.3-2.3-4.9 4.6 2.8 5.8-4.2-1.7 5.2 5.3 1.1-6.5 2.9zm-10.2-122.2 7 1.5 3.1-4.4-0.1 5.4 6.5 2.9-5.3 1.1 1.7 5.2-5.8-4.2-4.6 2.8 2.3-4.9zm103.4-20.7 6.2 2.8 0.6 5.8-6.8 3.9-6.8-3.9 0.6-5.8zm-5.7-1.9 1.4-13.2 4.3-4.8 4.3 4.8 1.4 13.2-5.7-2.5zm98.9 19.6 3.1 4.4 7-1.5-4.8 5.3 2.3 4.9-4.6-2.8-5.8 4.2 1.7-5.2-5.3-1.1 6.5-2.9zm-10.5 100.1-8.2-5.9 1.1-10 3.6 6.2 5.4-0.6-4.1 3.6zm-43.3 30.8-4-3.7-6.5 2.9 5-8.7h10.1l-5.8 4.2zm1.6 6.9 4.6 20.7-20-6.8-5.1-6.9 5-8.7 9.2-4.1zm-76.4-10.6-4 3.7 1.2-5.3-5.8-4.2h10.1l5 8.7zm9.9 8.9 5 8.7-5.1 6.9-20 6.8 4.6-20.7 6.3-5.8zm-59.1-46.4 5.4 0.6 3.6-6.2 1 10-8.2 5.9 2.2-6.8zm1.9-64.5 8.2 5.9-1 10-3.6-6.2-5.4 0.6 4-3.6zm1.3 14.1 5 8.7-1 10-8.2 2.6-20.2-6.3 15.9-14zm4 28 1 10-5 8.7-8.5-1-15.9-14 20.2-6.3zm-1.4-4.7 5.1-1.6 0.8-7.1 5 8.7-5 8.7-0.8-7.1zm39.4-68.2 4 3.7 6.5-2.9-5 8.7h-10.1l5.8-4.3zm-1.6-6.9-4.6-20.7 20 6.8 5.1 6.9-5 8.7-9.2 4.1zm76.4 10.5 4-3.7-1.2 5.3 5.8 4.2h-10.1l-5-8.7zm-9.9-8.8-5-8.7 5.1-6.9 20-6.8-4.6 20.7-6.3 5.8zm28.1 73.4 5.2-1.4v-6.3l4.4 7.7-4.4 7.6v-6.3zm-7.2 26.8 5.2 1.4 3.2-5.5v8.9l-7.7 4.4 3.2-5.5zm3.2-3.3-8.9-2.4-13.9-13.9 19-5.1 9 2.4v10.1zm-49.6-9.5-5.1 5.1-1.9-7-6.9 1.9 1.9-7-7-1.9 5.1-5.1-5.1-5.1 7-1.9-1.9-7 6.9 1.9 1.9-7 5.1 5.1 5.1-5.1 1.9 7 7-1.9-1.9 7 7 1.9-5.1 5.1 5.1 5.1-7 1.9 1.9 7-7-1.9-1.9 7zm3.9 9.5-3.9 14.5-3.9-14.5 3.9-3.9zm-50.9 12.6-7.7-4.4v-8.9l3.1 5.5 5.2-1.4-3.8 3.8zm-6.6-36.1-5.2 1.4v6.3l-4.4-7.7 4.4-7.7v6.3zm7.2-26.8-5.2-1.4-3.2 5.5v-8.9l7.7-4.4-3.1 5.5zm-3.3 3.3 8.9 2.4 13.9 13.9-19 5.1-9-2.4v-10.1zm31.3 8.4 1.4 5.3-5.3 1.4-10.6-10.6zm-0.6-17.8 10.6 10.6-1.4 5.3-5.3-1.4zm-0.6 32.9-3.9 3.9-14.5-3.9 14.5-3.9zm-19-24.7-6.5-6.5 5.1-8.8 8.8-5.1 6.5 6.5 5.1 19zm-11.1 48.2-5.1-8.8v-10.2l8.9-2.4 19 5.1-13.9 13.9zm11.1 1.2 19-5.1-5.1 19-6.5 6.6-8.8-5.1-5.1-8.9zm5.7-5.7 10.6-10.6 5.3 1.4-1.4 5.3zm17.8-0.6 5.3-1.4 1.4 5.3-10.6 10.7zm11.2-41.9 3.9-14.5 3.9 14.5-3.9 3.9zm50.9-12.5 7.7 4.5v8.9l-3.1-5.4-5.2 1.4 3.8-3.8zm2.6 12.5 5.1 8.8v10.2l-8.9 2.4-19-5.1 13.9-13.9zm-11.6 23.5-14.5 3.9-3.9-3.9 3.9-3.9zm0.6-24.7-19 5.1 5.1-19 6.6-6.6 8.8 5.1 5.1 8.9zm-5.7 5.7-10.6 10.6-5.3-1.4 1.4-5.3zm-17.8 0.6-5.3 1.4-1.4-5.3 10.6-10.6zm-5.3 35.4 5.3 1.4 3.9 14.5-10.6-10.6zm8.6-1.8-1.4-5.3 5.3-1.4 10.6 10.6zm20.2 9.5 6.5 6.5-5.1 8.8-8.8 5.1-6.5-6.5-5.1-19zm20.2-40.4v-13.5l7.1 4.1 5-3.6 1.4 13.2-6.7 11.5zm6.8-14.3-6.8-3.9v-7.9l5.3-2.4 5.5 4 0.7 6.8zm-10.9-14.4v8.2l-11.7-6.8-6.7-11.7h13.3l10.8 7.8zm-18.7-2.7-5.4-3.1-3.8 3.8 1.4-5.2-5.5-3.2h8.9zm-12.5-2.5-2.4 8.9-13.9 13.9-5.1-19 2.4-8.9h10.2zm-22.1-9.1-1.4 5.2-1.4-5.2h-6.3l7.7-4.5 7.7 4.4h-6.3zm-5.9 4 2.4 8.9-5.1 19-13.9-13.9-2.4-9 8.8-5.1h10.2zm-23.7 3.1 1.4 5.2-3.8-3.8-5.4 3.1 4.4-7.7h8.8zm-8.1-3.1-6.8 11.7-11.7 6.8v-8.2l-5.6-2.5 10.8-7.8zm-22.5 12.9v7.9l-6.8 3.9-4.7-3.4 0.7-6.8 5.5-4zm-7.1 16.6 7.1-4.1v13.6l-6.7 11.7-6.6-11.5 1.4-13.2zm0.4 29.3 6.8 11.7v13.5l-7.1-4.1-4.9 3.6-1.4-13.2zm-0.1 25.9 6.8 3.9v7.9l-5.3 2.4-5.5-4-0.7-6.8zm10.9 14.5v-8.2l11.7 6.8 6.8 11.7h-13.3l-10.8-7.8zm18.7 2.6 5.4 3.1 3.8-3.8-1.4 5.2 5.5 3.2h-8.9zm12.5 2.6 2.4-8.9 13.9-13.9 5.1 19-2.4 8.9h-10.2zm22.1 9.1 1.4-5.2 1.4 5.2h6.3l-7.7 4.5-7.7-4.4h6.3zm5.9-4-2.4-8.9 5.1-19 13.9 13.9 2.4 9-8.8 5.1h-10.2zm23.7-3.2-1.4-5.2 3.8 3.8 5.5-3.2-4.4 7.7h-8.9zm8.1 3.2 6.8-11.7 11.7-6.8v8.2l5.6 2.5-10.8 7.8zm22.5-13v-7.8l6.8-3.9 4.7 3.4-0.7 6.8-5.5 4zm7-16.6-7.1 4.1v-13.5l6.8-11.7 6.7 11.5-1.4 13.2zm2-25.2 5-8.7 0.8 7.1 5.1 1.6-5.1 1.6-0.8 7.1zm16.8-27-5.4-0.6-3.6 6.2-1.1-10 8.2-5.9-2.2 6.8zm-3.3 50.4-5-8.7 1-10 8.2-2.5 20.2 6.3-15.9 14zm-3.9-28-1-10 5-8.7 8.5 1 15.9 14-20.2 6.3zm7.7-27.3 3.1-9.6 8.1-5.9 7.4 4.4 8.8 19.2-21-2.5zm1.7-18.2-2 6.2-10.8 7.8-0.7-6.2-5.1-3.7 12.1-5.4zm-22.2 1.3-8.2-5.9h7.2l2.1-4.9 1.1 5.3 7 1.5zm-1-41.8 5.9-5.4 4.6 6.5-7 16.3zm0.7 24-3.4 7.9h-10.1l-8.1-5.9 1.9-8.4 15.5-14.3zm-18.1-13.3 3.9-17.3 7.6-2.6 1.6 7.9zm0.4-20.5-16.8 5.7 10.6-14.3 8 0.7zm-23.5 8-8.1 2.8-6.7-7.5-1-10 7.5-4.2 21.1 2zm-3.9 16.2-9.2-4.1-1.1-10 4.8 5.3 5.1-1.7-3.2 4.3zm-8.1 6.6-0.6-6.1 12.2 5.4 6.6 11.5h-13.5l-11.7-6.8zm-15.2 4.1-11.7 6.8h-13.5l6.7-11.5 12.1-5.4-0.6 6.1zm-14.7-21.2 5.1 1.7 4.8-5.3-1 10-9.2 4.1 3.6-6.2zm10.6-10.5-6.7 7.5-8.1-2.8-12.6-17 21.1-2 7.5 4.2zm-21.6 2.5-16.9-5.7-1.8-7.8 8-0.7zm-16.4 14.8-13-12.1 1.6-7.9 7.6 2.6zm1.6 6.9 1.9 8.4-8.1 5.9h-10.1l-3.4-7.9 4.2-20.8zm-22.5-0.1-7-16.3 4.6-6.5 5.9 5.4zm0.3 18.7 1.1-5.3 2.1 4.9h7.2l-8.2 5.9-9.2-4.1zm-1.6 8.4-5.1 3.7-0.7 6.2-10.8-7.8-2-6.2 6.4-1.4zm-28-1.4 8.1 5.9 3.1 9.6-6.4 5.7-21 2.5 8.8-19.2zm-0.5 25.9-13.4 11.7-7.6-2.4 3.3-7.3zm-12.4 16.2 17 5.3-17 5.3-6-5.3zm12.4 26.9-17.7-2.1-3.3-7.3 7.6-2.4zm5.3 4.7 6.4 5.7-3.1 9.6-8.1 5.9-7.4-4.4-8.8-19.2zm4.7 23.9 2-6.2 10.8-7.8 0.7 6.3 5.1 3.7-12.1 5.4zm22.3-1.4 8.2 5.9h-7.2l-2.1 4.9-1.1-5.3-7-1.5zm0.9 41.8-5.9 5.4-4.6-6.5 7-16.3zm-0.6-23.9 3.4-7.9h10.1l8.1 5.9-1.9 8.4-15.6 14.3zm18.1 13.3-3.9 17.3-7.6 2.6-1.6-7.9zm-0.5 20.4 16.9-5.7-10.6 14.3-8-0.7zm23.6-7.9 8.1-2.7 6.7 7.5 1.1 10-7.5 4.2-21.1-2zm3.9-16.2 9.2 4.1 1 10-4.8-5.3-5.1 1.7 3.2-4.3zm8.1-6.6 0.6 6.1-12.1-5.4-6.7-11.5h13.5l11.7 6.8zm15.1-4.1 11.7-6.8h13.5l-6.6 11.5-12.2 5.4 0.6-6.1zm14.8 21.2-5.1-1.7-4.8 5.3 1.1-10 9.2-4.1-3.6 6.2zm-10.6 10.4 6.7-7.5 8.1 2.7 12.6 17-21.1 2-7.5-4.2zm21.6-2.4 16.9 5.7 1.8 7.8-8 0.7zm16.4-14.8 13.1 12.1-1.6 7.9-7.6-2.6zm-1.6-6.9-1.9-8.4 8.1-5.9h10.1l3.4 7.9-4.2 20.8zm22.5 0.1 7 16.3-4.6 6.5-5.9-5.4zm-0.3-18.8-1.1 5.3-2.1-4.9h-7.2l8.2-5.9 9.2 4.1zm1.5-8.3 5.1-3.7 0.7-6.3 10.7 7.9 2 6.2-6.4 1.4zm28.1 1.3-8.1-5.9-3.1-9.6 6.4-5.7 21-2.5-8.8 19.3zm0.5-25.8 13.3-11.7 7.7 2.4-3.3 7.3zm12.4-16.3-17-5.3 17-5.3 6 5.3zm-12.4-26.8 17.7 2.1 3.3 7.3-7.7 2.4zm28.2-13.5-18.2-10.8-3.6-7.8 6.7-7.5zm-17.1-29.7-9.9 2.1-5-7-0.3-21.2zm-18.8 4.9-9.2 4.1-9.8-2.1-1.7-8.4 8.4-19.4 12.2 17.3zm-0.1-15.6-10.3-14.6 3.2-7.4 6.9 4.1zm-16.4-50.4 16.1 27.9-8.8-5.2-4 9.3-5.9-8.3-7.5 6.9-2-10-9.6 3.3 2.2-9.9-10.1-0.9 6-8.1-8.8-5zm-29.4 6.2-4.8 6.4-17.7-1.6 15.5-8.7zm-11.1-6.2-18.4 10.3-8.5-0.8-3.1-9.6h30zm-30 13.3 5.4 0.5-4.7 2.6 0.8 7.1-3.6-4-3.6 4 0.8-7.1-4.7-2.6 5.4-0.5 2.2-6.8zm-4.3-13.3-3.1 9.6-8.5 0.8-18.5-10.4zm-18.7 11-17.7 1.6-4.8-6.4 7-3.9zm-51.9-11h32.3l-8.9 5 6 8.1-10.1 0.9 2.2 9.9-9.6-3.3-2 10-7.5-6.9-5.9 8.3-4-9.3-8.8 5.2zm-16.2 32.6 6.9-4.1 3.2 7.4-10.3 14.5zm-0.2 24.9 12.2-17.3 8.4 19.4-1.7 8.4-9.8 2.1-9.2-4.1zm-3.8-22.5-0.3 21.1-5 7-9.8-2.1zm-17.2 29.7 6.7 7.5-3.6 7.8-18.1 10.8zm-15.1 30.8 15.3-9.1-7.4 16.2-8 0.9zm-20.2 30.3 16.2-27.9-0.1 10.2 10-1.2-4.2 9.2 9.7 3-7.6 6.7 7.6 6.7-9.7 3 4.2 9.2-10-1.2 0.1 10.3zm20.1 22.3 8 0.9 7.4 16.2-15.3-9.1zm0.2 12.8 18.2 10.8 3.6 7.8-6.7 7.5zm17.1 29.7 9.8-2.1 5 7 0.3 21.2zm18.8-5 9.2-4.1 9.8 2.1 1.7 8.4-8.4 19.4-12.2-17.3zm0.1 15.7 10.3 14.5-3.2 7.4-6.9-4.1zm16.4 50.4-16.1-27.9 8.8 5.2 4-9.3 5.9 8.3 7.5-6.9 2 10 9.6-3.3-2.2 9.9 10.1 0.9-6 8.1 8.9 5zm29.4-6.2 4.8-6.4 17.7 1.7-15.5 8.7zm11.1 6.2 18.5-10.4 8.5 0.8 3.1 9.6zm30-13.3-5.4-0.5 4.7-2.7-0.8-7.1 3.6 4 3.6-4-0.8 7.1 4.7 2.7-5.4 0.5-2.2 6.8zm4.3 13.3 3.1-9.6 8.5-0.8 18.4 10.4zm18.7-11 17.7-1.7 4.8 6.4-7 3.9zm51.9 11h-32.3l8.8-5-6-8.1 10.1-0.9-2.2-9.9 9.6 3.3 2-10 7.5 6.9 5.9-8.3 4 9.3 8.8-5.2zm16.1-32.6-6.9 4.1-3.1-7.4 10.3-14.5zm0.3-24.9-12.2 17.3-8.4-19.4 1.7-8.4 9.8-2.1 9.2 4.1zm3.8 22.5 0.3-21.2 5-7 9.9 2.1zm17.2-29.8-6.7-7.5 3.6-7.8 18.2-10.8zm15.1-30.8-15.3 9.1 7.4-16.2 8-0.9zm-5.9-11.3 4.2-9.2-9.7-3 7.6-6.7-7.6-6.7 9.7-3-4.2-9.2 10 1.2-0.1-10.2 16.1 27.9-16.1 27.9 0.1-10.2z"/>
    </symbol>
    <symbol id="eightPointStar" viewBox="0 0 300 300">
      <path d="m256.1 106v-62.1h-62.1l-43.9-43.9-43.9 43.9h-62.3v62.1l-43.9 43.9 43.9 43.9v62.1h62.1l43.9 43.9 43.9-43.9h62.1v-62.1l43.9-43.9zm-230.2 24.6 1.7 11-5.2 5.2-6.3-6.3zm-19.4 19.4 6.4-6.3 6.3 6.3-6.3 6.3zm19.4 19.4-9.8-9.8 6.3-6.3 5.2 5.1zm18 18-15.1-15.1 11-1.7 4.1 4.1zm0-37.4v18.2l-2.5-2.5-10.5 1.7 1.7-10.5-6.8-6.8 6.8-6.8-1.7-10.5 10.5 1.7 2.5-2.5zm0-24.7-4.1 4.1-11-1.7 15.1-15.1zm193.9-76.8v9h-7.3l-6.5-9zm-9.6 13.6h9.6v9.6l8.6 6.3-8.6 6.3v9.6l-20.2-11.6-11.5-20.2h9.6l6.3-8.6zm-60.9 207-10.5-1.7-6.8 6.8-6.8-6.8-10.5 1.7 1.7-10.5-2.5-2.5h36.4l-2.5 2.5zm-32.9-26.7h12.3l3.3-7.2 3.3 7.2h12.3l-15.5 9zm-1.8-211.5 10.5 1.7 6.8-6.8 6.8 6.8 10.5-1.7-1.7 10.5 2.5 2.5h-36.2l2.5-2.5zm32.9 26.6h-12.3l-3.3 7.2-3.3-7.2h-12.3l15.5-9zm45.2 65.1-21.6 14.4-14.9-1 6.6-13.4 23.2-11.5 1.5 2.6 8.8-0.9-5.2 7.2zm13.7 27.4-8.1 3.7v3l-25.9 1.7-12.5-8.3 12.5-8.3 25.9 1.7v3zm-10 37.2-8.8-0.9-1.5 2.6-23.2-11.5-6.6-13.4 14.9-1 21.6 14.4-1.5 2.6zm-27.2 27.2-7.2-5.2-2.6 1.5-14.4-21.6 1-14.9 13.4 6.6 11.5 23.2-2.6 1.5zm-37.2-36.4 8.3 12.5-1.7 25.9h-3l-3.7 8.1-3.7-8.1h-3l-1.7-25.9zm-8.8 4.8-0.7-10.8 4.2-2.1 2.6 3.9zm11.6-9 2.6-3.9 4.2 2.1-0.7 10.8zm1-9.8-3.8 5.6-3.8-5.6-6.1 3-0.4-6.8-6.8-0.4 3-6.1-5.6-3.8 5.6-3.8-3-6.1 6.8-0.4 0.4-6.8 6.1 3 3.8-5.6 3.8 5.6 6.1-3 0.4 6.8 6.8 0.4-3 6.1 5.6 3.8-5.6 3.8 3 6.1-6.8 0.4-0.4 6.8zm-42.7 40.1 11.5-23.2 13.4-6.6 1 14.9-14.4 21.6-2.6-1.5-7.2 5.2 0.9-8.8zm-21.8-26.7 21.6-14.4 14.9 1-6.6 13.4-23.3 11.5-1.5-2.6-8.8 0.9 5.2-7.2zm-13.7-27.4 8.1-3.7v-3l25.9-1.7 12.5 8.3-12.5 8.3-25.9-1.7v-3zm10-37.2 8.8 0.9 1.5-2.6 23.3 11.5 6.6 13.4-14.9 1-21.6-14.4 1.5-2.6zm27.2-27.2 7.2 5.2 2.6-1.5 14.4 21.6-1 14.9-13.4-6.6-11.5-23.2 2.6-1.5zm17.9 78.7 4.6 0.3 0.3 4.6-9.8 4.8zm-13.6-5.5 9-6 3.9 2.6-2 4.2zm9.1-11.6-9-6 10.8-0.7 2 4.2zm-0.3-21.3 9.8 4.8-0.3 4.6-4.6 0.3zm24.1-3.9-8.3-12.5 1.7-25.9h3l3.7-8.1 3.7 8.1h3l1.7 25.9zm8.8-4.9 0.7 10.8-4.2 2.1-2.5-3.9zm-11.6 9-2.6 3.9-4.2-2.1 0.7-10.8zm41.7-30.2-11.5 23.2-13.4 6.6-1-14.9 14.4-21.6 2.6 1.5 7.2-5.2-0.9 8.8zm-16.9 63.6-2.1-4.2 3.9-2.6 9 6zm2.1 14.5-9.7-4.8 0.3-4.6 4.6-0.3zm-4.1-29.4 2.1-4.2 10.8 0.7-9 6zm-0.7-8.9-4.6-0.3-0.3-4.6 9.7-4.8zm38.8-26.8-2.2-3.8-21.7 10.7 10.7-21.7-3.8-2.2 1-9.8 7.2-5.1 15.1 8.7 8.7 15.1-5.1 7.2zm-9-37.4-6.4 4.6 0.8-7.9-10.7-6.1h18l9 15.6zm-10.5-0.7-0.9 8.8-8 5.7-3.8-2.2-13.5 20.2-1.6-24.2h-4.4l-4.1-8.9 3.6-8h17.4zm-44.7-8.7 3.6 8-4 8.9h-4.4l-1.6 24.2-13.5-20.1-3.8 2.2-8-5.7-0.9-8.8 15.1-8.7zm-37.3 6.2 0.8 7.9-6.4-4.6-10.7 6.2 9-15.6h18zm-5.8 8.6 7.2 5.1 1 9.8-3.8 2.2 10.7 21.7-21.7-10.7-2.2 3.8-9.8-1-5.1-7.2 8.7-15.1zm-29.3 24 4.6 6.4-7.9-0.8-6.1 10.7v-18l15.5-9zm-0.7 10.4 8.8 0.9 5.7 8-2.2 3.8 20.2 13.4-24.2 1.6v4.4l-8.9 4-8-3.6v-17.4zm8.3 45.2v4.4l24.2 1.6-20.2 13.4 2.2 3.8-5.7 8-8.8 0.9-8.7-15.1v-17.4l8-3.6zm-10.8 36.9 7.9-0.8-4.6 6.4 6.2 10.7-15.5-9v-18zm8.7 5.8 5.1-7.2 9.8-1 2.2 3.8 21.7-10.7-10.7 21.7 3.8 2.2-1 9.8-7.2 5.1-15.1-8.7zm23.9 29.2 6.4-4.6-0.8 7.9 10.6 6.1h-18l-9-15.6zm10.4 0.7 0.9-8.8 8-5.7 3.8 2.2 13.5-20.2 1.6 24.2h4.4l4 8.9-3.6 8h-17.4zm44.8 8.7-3.6-8 4.1-8.9h4.4l1.6-24.2 13.5 20.2 3.8-2.2 8 5.7 0.9 8.8-15.1 8.7h-17.6zm37.3-6.1-0.8-7.9 6.4 4.6 10.7-6.2-9 15.6h-18zm5.8-8.7-7.2-5.1-1-9.8 3.8-2.2-10.7-21.7 21.7 10.7 2.2-3.8 9.8 1 5.1 7.2-8.7 15.1zm29.3-24-4.6-6.4 7.8 0.8 6.1-10.6v18l-15.5 9zm0.6-10.4-8.8-0.9-5.7-8 2.2-3.8-20.1-13.4 24.2-1.6v-4.4l8.9-4 8 3.6v17.4zm-8.2-45.1v-4.4l-24.2-1.6 20.1-13.4-2.2-3.8 5.7-8 8.8-0.9 8.7 15.1v17.4l-8 3.6zm10.8-36.9-7.8 0.8 4.6-6.4-6.2-10.7 15.5 9v18zm-11.8-58.1-6.5 9h-10l-5.2-9zm-21.8 9h-23.3l-15.5-9h33.7zm-25.8-28.7 15.1 15.1h-12.7l-4.1-4.1zm-2.9-2.9-11 1.7-5.1-5.2 6.3-6.3zm-19.4-19.4 6.3 6.3-6.3 6.3-6.3-6.3zm-9.6 9.6 6.3 6.3-5.2 5.2-11-1.7zm-12.7 12.7 1.7 11-4.1 4.1h-12.7zm-20.6 19.7h33.7l-15.6 9h-23.3zm-5.3 0-5.2 9h-10l-6.5-9zm-39.7 0h13.8l-6.5 9h-7.3zm0 13.6h9.6l6.3-8.6 6.3 8.6h9.6l-11.6 20.2-20.2 11.6v-9.6l-8.6-6.3 8.6-6.3zm-13.6-13.6h9v9h-9zm0 13.6h9v7.3l-9 6.5zm0 18 9 6.5v9.9l-9 5.2zm0 27 9-5.2v23.3l-9 15.6zm9 27.3v12.3l7.2 3.3-7.2 3.3v12.3l-9-15.6zm-9 24.8 9 15.6v23.3l-9-5.2zm0 39 9 5.2v10l-9 6.5zm9 53.2h-9v-9h9zm0-13.6h-9v-13.8l9 6.5zm4.6 13.6v-9h7.3l6.5 9zm9.7-13.6h-9.6v-9.6l-8.6-6.3 8.6-6.3v-9.6l20.2 11.6 11.6 20.2h-9.6l-6.3 8.6zm8.3 13.6 6.5-9h10l5.2 9zm21.8-9h23.3l15.6 9h-33.7zm25.8 28.7-15.1-15.1h12.7l4.1 4.1zm2.9 3 11-1.7 5.2 5.2-6.3 6.3zm19.4 19.3-6.3-6.3 6.3-6.3 6.3 6.3zm9.6-9.6-6.3-6.3 5.1-5.2 11 1.7zm12.7-12.7-1.7-11 4.1-4.1h12.7zm20.6-19.7h-33.7l15.5-9h23.3zm5.3 0 5.2-9h10l6.5 9zm39.6 0h-13.8l6.5-9h7.3zm0-13.6h-9.6l-6.3 8.6-6.3-8.6h-9.6l11.6-20.2 20.2-11.6v9.7l8.6 6.3-8.6 6.3zm13.7 13.6h-9v-9h9zm0-13.6h-9v-7.3l9-6.5zm0-18-9-6.5v-10l9-5.2zm0-26.9-9 5.2v-23.3l9-15.6zm-9-27.4v-12.3l-7.2-3.3 7.2-3.3v-12.3l9 15.5zm9-24.7-9-15.6v-23.3l9 5.2zm0-39-9-5.2v-9.9l9-6.5zm0-25.9-9-6.5v-7.3h9zm0-18.4h-9v-9h9zm22.6 73.1 9.8 9.8-6.3 6.3-5.2-5.2zm-18-18 15.1 15.1-11 1.7-4.1-4.1zm0 37.4v-18.2l2.5 2.5 10.5-1.7-1.7 10.5 6.8 6.8-6.8 6.8 1.7 10.5-10.5-1.7-2.5 2.5zm0 37.4v-12.7l4.1-4.1 11 1.7zm18-18-1.7-11 5.2-5.1 6.3 6.3zm6.7-19.4 6.4-6.3 6.3 6.3-6.3 6.3z"/>
    </symbol>
    <symbol id="flower" viewBox="0 0 300 300">
        <path d="m279.9 115.2v-40.2l-34.8-20.1-20.1-34.8h-40.2l-34.8-20.1-34.8 20.1h-40.2l-20.1 34.8-34.8 20.1v40.2l-20.1 34.8 20.1 34.8v40.2l34.8 20.1 20.1 34.8h40.2l34.8 20.1 34.8-20.1h40.2l20.1-34.8 34.8-20.1v-40.2l20.1-34.8zm-5.3-37.1v28l-9.2-15.9-12.7 0.6 6.8-10.7-9.2-15.9zm-31.7 125.6-9.8-0.4-4.9 6.4-28.7-14.1-11.6-23.7 26.3-1.8 26.5 17.8-3.1 7.4zm-39.3 39.2-8.3-5.3-7.5 3.1-17.8-26.5 1.8-26.3 23.7 11.6 14.1 28.7-6.4 4.9zm-53.6-49.2 14.7 21.9-2.1 31.9-8 1-4.5 8.7-4.5-8.7-8-1-2.1-31.9zm-15.3 13.3-1.5-21.7 8.4-4.1 5.2 7.8zm18.5-18 5.2-7.8 8.4 4.1-1.5 21.7zm3.4-14.5-6.5 9.8-6.5-9.8-10.6 5.2-0.8-11.7-11.7-0.8 5.2-10.6-9.8-6.6 9.8-6.5-5.2-10.6 11.7-0.8 0.8-11.7 10.6 5.2 6.5-9.8 6.5 9.8 10.6-5.2 0.8 11.7 11.7 0.8-5.2 10.6 9.8 6.5-9.8 6.6 5.2 10.6-11.7 0.8-0.8 11.7zm-66.2 53.7 14.1-28.7 23.7-11.6 1.8 26.3-17.8 26.5-7.4-3.1-8.3 5.3 0.4-9.9zm-33.9-33.4-5.8 9.1-13.2 0.6-12.2-21.1v-24.3l11.7-6.1 9.6 5 1.2 9.6 29.4 2-24.5 16.4zm0.7-98.4 9.8 0.4 4.9-6.4 28.7 14.1 11.6 23.7-26.3 1.8-26.5-17.8 3.1-7.5zm39.2-39.2 8.3 5.3 7.4-3.1 17.8 26.5-1.8 26.3-23.7-11.6-14.1-28.7 6.4-4.9zm18.3 109.6-21.7-1.5 18-12.1 7.8 5.2zm12.5 6.1 0.6 9.3-19.5 9.6 9.6-19.5zm-34.2-38.1 21.7-1.5 4.1 8.4-7.8 5.2zm24.9-7-9.6-19.5 19.5 9.6-0.6 9.3zm-11.6 22.2-21.9 14.7-31.9-2.1-1-8-8.7-4.6 8.7-4.5 1-8 31.9-2.1zm-47 37.9 26.5-17.8 26.3 1.8-11.6 23.7-28.7 14.1-4.9-6.4-9.8 0.4 5.3-8.3zm90.7-81.5-14.7-21.9 2.1-31.9 8-1 4.5-8.8 4.5 8.8 8 1 2.1 31.9zm15.3-13.4 1.5 21.7-8.4 4.1-5.2-7.7zm-18.5 18.1-5.2 7.7-8.4-4.1 1.5-21.7zm62.8-39.2-14.1 28.7-23.7 11.6-1.8-26.3 17.8-26.5 7.5 3.1 8.3-5.3-0.4 9.8zm31.1 40.3-26.5 17.8-26.3-1.8 11.6-23.7 28.7-14.1 4.9 6.4 9.8-0.4-5.3 8.3zm-59.5 46.2 7.7-5.2 18 12.1-21.7 1.5zm10.5 33.4-19.5-9.6 0.6-9.3 9.3-0.6zm-10.5-50.1 4.1-8.4 21.7 1.5-18 12.1zm-8.3-14.5-0.6-9.3 19.5-9.6-9.6 19.5zm20.8 22.8 21.9-14.7 31.9 2.1 1 8 8.8 4.5-8.8 4.6-1 8-31.9 2.1zm59.7-7.9-1.2-9.6-29.4-2 24.5-16.4-3.7-8.9 5.8-9.1 13.2-0.6 12.2 21.1v24.3l-11.7 6.1zm0-62.2-7.1 11.1-10.8 0.5-5.8-7.7-26.4 13 13-26.4-7.7-5.8 0.5-10.8 11.1-7.1 21.1 12.2zm-31.4-54.5 14 24.3-15.9-9.2-10.7 6.8 0.6-12.7-15.9-9.2zm-17.5 12.2-0.6 13.2-9.1 5.8-8.9-3.7-16.4 24.5-2-29.4-9.6-1.2-5-9.6 6.1-11.7h24.3zm-54.5-31.5 24.3 14h-18.4l-5.9 11.3-5.9-11.3h-18.4zm-33.4 19.3h24.3l6.1 11.7-5 9.6-9.6 1.2-2 29.4-16.4-24.5-8.9 3.7-9.1-5.8-0.6-13.2zm-38.6 0h28l-15.9 9.2 0.5 12.7-10.7-6.8-15.9 9.2zm-19.2 33.4 21.1-12.2 11.1 7.1 0.5 10.8-7.7 5.8 13 26.4-26.4-13-5.8 7.7-10.8-0.5-7.1-11.1zm-33.4 19.3 24.3-14-9.2 15.9 6.8 10.7-12.7-0.6-9.2 15.9zm0 38.6 12.2-21.1 13.2 0.6 5.8 9.1-3.7 8.9 24.3 16.3-29.4 2-1.2 9.6-9.6 5-11.7-6.1v-24.3zm-5.3 57.6-14-24.3 14-24.3v18.4l11.3 5.9-11.3 5.9zm5.3 47.7v-28l9.2 15.9 12.7-0.5-6.8 10.7 9.2 15.9zm21.2-1.8 7.1-11.1 10.8-0.5 5.8 7.7 26.4-13-13 26.4 7.7 5.9-0.5 10.8-11.1 7.1-21.1-12.2zm31.4 54.5-14-24.3 15.9 9.2 10.7-6.8-0.5 12.7 15.9 9.2zm17.5-12.2 0.6-13.2 9.1-5.8 8.9 3.7 16.4-24.5 2 29.4 9.6 1.2 5 9.6-6.1 11.7h-24.3zm54.5 31.5-24.3-14h18.4l5.9-11.3 5.9 11.3h18.4zm33.4-19.3h-24.3l-6.1-11.7 5-9.6 9.6-1.2 2-29.4 16.4 24.5 8.9-3.7 9.1 5.8 0.6 13.2zm38.6 0h-28l15.9-9.2-0.6-12.7 10.7 6.8 15.9-9.2zm19.2-33.4-21 12.2-11.1-7.1-0.5-10.8 7.7-5.9-13-26.4 26.4 13 5.8-7.7 10.8 0.5 7.1 11.1zm33.4-19.3-24.3 14 9.2-15.9-6.8-10.7 12.7 0.5 9.2-15.9zm0-38.6-12.1 21.1-13.2-0.6-5.8-9.1 3.7-8.9-24.4-16.4 29.4-2 1.2-9.6 9.6-5 11.7 6.1v24.4zm-6-33.4 11.3-5.9v-18.4l14 24.3-14 24.3v-18.4z"/>
    </symbol>
  </defs>
</svg>